<?xml version="1.0" standalone="no"?>
<!DOCTYPE svg PUBLIC "-//W3C//DTD SVG 20010904//EN"
 "http://www.w3.org/TR/2001/REC-SVG-20010904/DTD/svg10.dtd">
<svg version="1.0" xmlns="http://www.w3.org/2000/svg"
 width="1280.000000pt" height="738.000000pt" viewBox="0 0 1280.000000 738.000000"
 preserveAspectRatio="xMidYMid meet">
<g transform="translate(0.000000,738.000000) scale(0.100000,-0.100000)"
fill="#000000" stroke="none">
<path d="M60 3690 l0 -3690 6360 0 6360 0 0 3690 0 3690 -6360 0 -6360 0 0
-3690z m6304 3574 c3 -9 6 -600 6 -1314 0 -1026 -3 -1300 -12 -1307 -7 -6 -50
-15 -95 -21 -353 -48 -652 -308 -760 -659 -24 -80 -27 -103 -27 -253 -1 -181
12 -250 74 -386 130 -287 422 -501 736 -539 33 -4 65 -12 72 -17 9 -8 12 -286
12 -1327 0 -724 -4 -1322 -8 -1329 -7 -10 -636 -12 -3113 -10 l-3104 3 -3 696
c-2 550 1 699 10 706 7 6 53 18 103 27 331 63 665 218 920 426 107 88 265 257
329 353 143 215 246 509 305 867 103 628 38 1311 -164 1727 -135 278 -378 549
-630 703 -198 122 -465 216 -755 265 -52 9 -100 21 -107 27 -10 8 -13 153 -13
688 0 372 3 680 7 683 3 4 1402 7 3109 7 2819 0 3102 -1 3108 -16z m6324 -676
l2 -688 -22 -4 c-13 -3 -68 -12 -123 -21 -282 -45 -559 -142 -760 -265 -252
-154 -495 -425 -630 -703 -261 -537 -284 -1480 -54 -2181 85 -258 184 -428
353 -604 120 -125 206 -196 341 -285 236 -154 519 -266 775 -307 41 -6 85 -14
98 -16 l22 -4 -2 -703 -3 -702 -3113 -3 -3112 -2 2 1337 3 1338 80 11 c147 21
276 70 392 148 287 192 442 516 412 857 -11 122 -33 199 -89 314 -138 283
-400 474 -710 518 l-85 12 -3 1323 -2 1322 3112 -2 3113 -3 3 -687z m-12375
-813 c580 -115 969 -387 1225 -855 347 -635 294 -1946 -103 -2548 -231 -351
-696 -649 -1163 -744 -99 -20 -114 -21 -122 -8 -11 16 -14 4137 -4 4164 8 21
20 20 167 -9z m12377 -2069 c0 -1621 -3 -2095 -12 -2098 -17 -6 -107 9 -225
37 -356 85 -742 313 -969 573 -139 158 -227 317 -298 534 -233 708 -199 1664
76 2168 219 401 541 661 984 795 140 43 330 83 397 84 l47 1 0 -2094z m-6326
828 c9 -25 7 -1647 -3 -1662 -17 -28 -221 18 -336 76 -218 109 -380 305 -447
539 -33 112 -33 324 0 436 89 309 340 544 652 611 89 20 127 20 134 0z m271
-10 c138 -35 309 -137 408 -243 159 -169 233 -372 225 -611 -4 -110 -9 -137
-40 -227 -74 -215 -210 -376 -409 -482 -93 -49 -222 -90 -297 -93 l-57 -3 -3
830 c-1 457 0 836 3 844 6 16 71 10 170 -15z"/>
</g>
</svg>
