<?xml version="1.0" standalone="no"?>
<!DOCTYPE svg PUBLIC "-//W3C//DTD SVG 20010904//EN"
 "http://www.w3.org/TR/2001/REC-SVG-20010904/DTD/svg10.dtd">
<svg version="1.0" xmlns="http://www.w3.org/2000/svg"
 width="1080.000000pt" height="1280.000000pt" viewBox="0 0 1080.000000 1280.000000"
 preserveAspectRatio="xMidYMid meet">
<metadata>
Created by potrace 1.15, written by Peter Selinger 2001-2017
</metadata>
<g transform="translate(0.000000,1280.000000) scale(0.100000,-0.100000)"
fill="#000000" stroke="none">
<path d="M8855 12774 c-270 -96 -496 -273 -635 -498 -29 -46 -52 -96 -56 -122
-8 -54 11 -112 41 -126 20 -9 23 -19 28 -106 4 -54 13 -141 21 -195 13 -86 21
-107 61 -171 l45 -73 0 -131 c0 -145 -5 -134 65 -144 15 -3 23 -19 37 -83 14
-63 24 -86 48 -107 24 -22 30 -36 30 -68 0 -31 9 -51 40 -92 21 -29 45 -74 52
-101 11 -44 17 -51 62 -74 l49 -25 -169 -87 c-93 -48 -201 -106 -241 -129
l-71 -42 -31 -97 c-41 -128 -84 -330 -111 -523 -12 -85 -23 -156 -24 -157 -2
-2 -56 50 -122 115 -133 131 -252 219 -476 353 -137 82 -156 91 -190 86 -82
-11 -302 -144 -414 -250 -65 -62 -71 -71 -98 -156 -23 -70 -27 -94 -18 -103 7
-7 12 -9 12 -5 0 16 60 -25 81 -55 29 -42 32 -44 106 -69 l63 -21 79 33 c71
29 80 36 100 75 11 24 27 44 35 44 8 0 54 -14 102 -32 114 -40 183 -103 251
-228 70 -129 150 -255 220 -348 35 -46 60 -88 57 -93 -3 -5 -47 -50 -98 -99
-196 -190 -314 -271 -442 -304 -111 -29 -428 -19 -794 24 -67 8 -226 9 -545 3
-247 -4 -547 -6 -665 -4 l-215 3 -205 -102 c-113 -56 -313 -147 -446 -201
l-241 -97 -419 -264 c-334 -210 -498 -322 -809 -549 -346 -253 -516 -365 -736
-485 -4 -2 -35 19 -69 46 -34 28 -70 50 -79 50 -10 0 -127 -25 -262 -55 -260
-58 -474 -92 -789 -125 -244 -26 -319 -50 -398 -124 -57 -54 -82 -92 -82 -125
0 -28 98 -246 118 -264 10 -8 94 -51 187 -95 154 -74 180 -83 272 -97 140 -20
158 -20 318 16 137 31 145 31 391 30 194 0 282 -5 390 -21 214 -31 258 -26
310 32 38 41 54 86 83 229 16 77 31 142 34 145 5 5 156 78 392 189 39 18 238
112 444 209 l374 176 96 0 c94 0 100 1 311 76 207 74 222 81 395 190 l181 113
34 72 c19 39 42 75 52 80 50 27 255 -7 585 -97 88 -24 163 -44 166 -44 3 0 8
-19 12 -42 4 -24 18 -97 30 -163 13 -66 37 -194 55 -285 17 -91 35 -175 40
-187 6 -14 41 -38 92 -64 l83 -42 120 22 c66 12 188 35 270 51 336 65 474 92
556 107 l85 16 51 -54 c27 -30 84 -93 126 -140 l76 -86 -53 -274 c-51 -258
-55 -288 -65 -509 -6 -129 -16 -338 -22 -463 -6 -126 -9 -230 -7 -232 1 -1
117 -65 256 -140 l254 -138 -6 -56 c-4 -31 -11 -132 -16 -226 -6 -93 -16 -244
-23 -335 -6 -91 -12 -257 -11 -370 l1 -205 57 -188 57 -187 -5 -228 c-3 -125
-9 -447 -14 -717 -6 -269 -15 -548 -21 -620 -6 -71 -15 -195 -21 -275 -31
-456 -27 -429 -60 -467 -62 -70 -72 -128 -44 -252 13 -57 31 -95 95 -193 44
-68 114 -192 157 -275 42 -84 80 -153 84 -153 3 0 48 -20 100 -44 185 -86 194
-89 251 -82 152 20 278 75 317 138 26 44 25 84 -6 198 -24 86 -33 103 -96 182
-40 51 -79 113 -93 147 -13 34 -39 80 -58 103 -54 67 -150 215 -197 303 -40
76 -42 83 -36 140 4 33 11 105 17 160 5 55 20 138 34 185 50 177 66 246 85
354 21 123 80 319 160 531 29 77 75 223 102 325 l49 185 -11 130 c-6 72 -15
171 -20 220 -14 128 -40 565 -40 662 0 45 9 121 20 170 11 48 42 195 70 326
119 565 152 717 170 802 18 82 43 223 70 395 11 72 43 314 60 460 23 189 40
288 73 431 l35 145 74 71 c68 67 75 78 106 166 50 140 166 306 652 926 452
576 449 572 629 926 166 327 265 561 338 808 26 86 28 104 27 267 0 194 -10
241 -79 385 -59 123 -111 180 -351 391 -224 196 -231 202 -304 224 -41 12 -85
31 -96 42 -39 35 -131 171 -185 273 -50 94 -53 105 -60 195 -5 74 -1 139 17
290 14 107 27 215 30 240 7 52 -69 445 -90 470 -7 8 -70 81 -140 162 -123 141
-130 148 -184 164 -82 24 -405 104 -417 104 -5 -1 -41 -12 -80 -26z"/>
<path d="M855 8854 c-207 -25 -356 -82 -494 -189 -158 -122 -267 -283 -328
-482 -24 -80 -26 -103 -26 -248 0 -145 2 -168 27 -249 80 -264 244 -459 491
-584 141 -71 340 -104 497 -83 219 29 380 105 537 255 122 118 206 257 253
423 32 113 33 352 1 468 -74 270 -257 489 -505 604 -130 61 -334 99 -453 85z"/>
</g>
</svg>
