<?xml version="1.0" standalone="no"?>
<!DOCTYPE svg PUBLIC "-//W3C//DTD SVG 20010904//EN"
 "http://www.w3.org/TR/2001/REC-SVG-20010904/DTD/svg10.dtd">
<svg version="1.0" xmlns="http://www.w3.org/2000/svg"
 width="938.000000pt" height="1280.000000pt" viewBox="0 0 938.000000 1280.000000"
 preserveAspectRatio="xMidYMid meet">
<metadata>
Created by potrace 1.15, written by Peter Selinger 2001-2017
</metadata>
<g transform="translate(0.000000,1280.000000) scale(0.100000,-0.100000)"
fill="#d4d4d8" stroke="none">
<path d="M5786 12781 c-22 -24 -171 -62 -237 -60 -53 2 -68 -8 -69 -46 -1 -60
-37 -95 -99 -95 -47 0 -60 -9 -71 -50 -5 -20 -23 -51 -40 -68 -17 -18 -30 -43
-30 -57 0 -13 -13 -37 -29 -54 -35 -36 -51 -101 -51 -206 0 -64 -3 -77 -22
-95 l-22 -20 22 -68 c12 -38 22 -77 22 -88 0 -11 -18 -38 -40 -59 -38 -37 -40
-42 -40 -100 0 -33 -4 -65 -8 -71 -11 -17 -58 -39 -144 -68 l-78 -26 -35 24
c-80 55 -211 59 -351 10 -44 -15 -136 -55 -205 -90 l-126 -63 -48 15 c-27 8
-89 33 -139 56 -83 38 -97 42 -176 42 -76 1 -95 -3 -175 -35 -132 -54 -228
-66 -349 -44 -106 19 -154 16 -254 -15 -95 -30 -130 -26 -230 24 -154 76 -174
81 -367 76 -339 -9 -437 -6 -474 14 -28 15 -78 21 -265 32 -293 17 -461 32
-556 50 l-75 14 -50 -32 c-157 -99 -197 -118 -252 -118 -13 0 -24 -8 -28 -19
-4 -15 -21 -23 -63 -31 -87 -17 -108 -28 -138 -73 -59 -88 -88 -119 -159 -167
l-73 -51 -31 -89 c-18 -49 -57 -127 -86 -173 -47 -72 -56 -93 -65 -158 -7 -47
-18 -85 -32 -104 -12 -16 -27 -59 -34 -98 l-11 -70 57 6 c65 6 110 28 198 97
55 44 69 50 110 50 30 0 58 7 77 20 17 11 43 20 58 20 25 0 32 8 63 78 47 101
57 112 110 112 26 0 57 8 76 20 18 11 45 20 59 20 34 0 58 35 140 200 36 74
84 155 105 179 l39 43 35 -20 c52 -31 255 -92 305 -92 33 0 51 -6 70 -24 17
-16 44 -27 78 -31 76 -10 124 -26 143 -47 10 -10 30 -18 45 -18 18 0 32 -7 39
-19 11 -22 206 -91 257 -91 21 0 37 -7 47 -21 23 -34 111 -49 287 -49 182 0
237 -9 339 -53 73 -31 79 -32 221 -32 137 0 148 -1 165 -21 11 -12 45 -45 77
-74 l57 -53 133 -3 c75 -1 162 -9 202 -18 71 -16 346 -93 350 -98 1 -2 21 -32
45 -68 24 -36 104 -141 179 -234 75 -92 166 -207 202 -253 l67 -86 -15 -35
c-13 -31 -13 -43 1 -105 9 -38 16 -82 16 -98 0 -33 -46 -128 -66 -136 -19 -7
-33 -87 -40 -240 -5 -102 -11 -150 -25 -182 -28 -64 -24 -99 16 -161 19 -30
35 -64 35 -76 0 -12 -17 -36 -40 -57 -56 -50 -52 -93 14 -159 38 -38 38 -41
19 -111 -3 -11 -27 -29 -54 -42 -65 -30 -89 -52 -89 -83 0 -14 -8 -31 -17 -38
-17 -12 -17 -15 5 -58 38 -80 30 -91 -65 -88 -110 4 -138 -8 -233 -107 -47
-48 -97 -96 -113 -105 -37 -25 -36 -68 4 -131 17 -27 33 -63 36 -80 5 -29 3
-33 -27 -38 -17 -4 -60 -23 -96 -43 -64 -36 -64 -36 -64 -80 0 -25 10 -75 23
-111 l22 -65 -25 -16 c-48 -31 -100 -95 -120 -148 -23 -63 -90 -329 -90 -359
0 -12 11 -31 24 -42 16 -14 30 -47 45 -104 46 -179 42 -171 101 -207 64 -38
79 -65 80 -145 0 -41 5 -61 18 -73 27 -25 265 -150 320 -168 57 -19 163 -23
205 -7 42 16 45 14 64 -26 24 -54 23 -225 -1 -313 -10 -36 -18 -81 -17 -101 1
-30 -7 -44 -43 -81 -39 -39 -49 -59 -81 -164 -21 -65 -46 -136 -57 -158 -11
-21 -35 -82 -53 -135 -18 -53 -56 -152 -85 -221 -30 -72 -54 -147 -57 -177 -5
-46 -10 -56 -37 -72 -45 -28 -73 -62 -80 -97 -6 -28 -12 -32 -49 -37 -35 -5
-51 -16 -108 -76 -66 -69 -84 -79 -136 -72 -9 1 -13 -17 -13 -63 0 -35 -7
-100 -15 -143 -18 -95 -18 -126 0 -178 12 -33 12 -42 0 -55 -7 -8 -36 -55 -65
-105 -53 -93 -107 -157 -150 -180 -14 -7 -51 -18 -83 -25 -31 -6 -101 -30
-155 -53 -84 -35 -107 -41 -176 -42 l-78 -1 -54 -102 c-30 -57 -54 -114 -54
-127 0 -20 -11 -30 -56 -52 -90 -44 -147 -116 -244 -309 -91 -181 -138 -249
-201 -291 -22 -14 -38 -32 -35 -38 2 -7 7 -34 11 -61 l7 -49 -26 30 c-24 29
-25 29 -26 7 0 -12 7 -39 15 -59 19 -46 13 -52 -25 -25 -39 29 -46 13 -20 -44
24 -55 19 -66 -13 -36 -33 31 -39 27 -22 -15 20 -46 14 -62 -19 -56 -30 6 -32
-3 -11 -54 19 -45 20 -44 -11 -32 -15 5 -28 8 -29 7 -1 -2 -7 -16 -14 -33 -6
-16 -27 -40 -45 -52 -22 -14 -37 -33 -41 -53 -9 -42 -94 -132 -166 -175 -65
-40 -84 -65 -73 -98 6 -18 4 -20 -7 -11 -20 17 -101 32 -138 26 -22 -3 -35
-12 -41 -28 -5 -13 -29 -37 -52 -53 -98 -69 -91 -61 -73 -81 13 -14 13 -20 4
-26 -8 -4 -15 -2 -18 7 -2 7 -17 26 -32 41 -22 23 -36 28 -75 28 -40 0 -77
-14 -218 -84 -147 -72 -280 -148 -309 -176 -5 -4 -3 -26 4 -48 11 -38 10 -44
-20 -95 -39 -69 -41 -97 -5 -97 28 0 84 -49 84 -74 0 -9 -16 -33 -35 -55 -42
-46 -43 -56 -10 -57 75 -5 102 -71 62 -150 -28 -56 -57 -151 -57 -186 0 -13
-9 -29 -20 -36 -23 -14 -25 -39 -9 -76 9 -20 9 -29 -1 -42 -8 -8 -17 -38 -20
-65 -6 -48 -6 -49 20 -49 58 0 110 -32 110 -68 0 -5 -18 -22 -40 -37 -44 -31
-50 -49 -20 -65 14 -8 32 -8 61 0 51 14 65 4 74 -56 6 -40 3 -51 -21 -85 -25
-37 -26 -41 -11 -56 13 -14 20 -14 46 -3 47 19 76 5 131 -64 78 -97 163 -133
204 -87 10 11 30 21 44 23 19 2 28 12 40 43 33 92 53 186 58 280 5 75 11 105
24 120 34 39 61 107 95 239 37 148 67 226 96 252 16 14 23 15 45 6 13 -7 47
-12 73 -12 57 0 149 44 168 81 21 41 15 156 -12 233 -26 74 -26 87 1 65 15
-12 18 -11 28 5 6 10 25 34 43 52 42 42 50 77 30 120 -20 40 -19 40 34 13 23
-11 47 -18 54 -15 7 2 67 70 133 149 146 175 177 203 233 212 31 5 56 20 91
53 61 57 74 78 57 98 -16 19 9 19 35 -1 37 -28 59 -18 119 55 58 71 107 110
140 110 23 0 31 23 18 49 -15 28 3 37 34 17 34 -22 38 -20 31 16 -6 30 -5 30
12 15 17 -16 23 -13 103 50 l84 67 80 6 80 5 0 49 c1 51 -1 49 101 136 16 14
44 51 63 82 32 52 50 68 92 81 11 4 20 27 29 71 15 81 61 180 103 224 60 63
173 104 200 73 25 -28 26 -48 6 -85 -10 -20 -19 -40 -19 -44 0 -15 67 -41 77
-31 16 16 58 0 88 -31 l28 -29 -21 -35 -21 -35 35 -11 c25 -9 48 -9 90 0 55
12 57 11 78 -12 11 -14 52 -44 90 -68 l68 -44 33 20 c99 59 175 118 170 133
-114 297 -159 715 -86 807 11 15 21 41 21 58 0 29 8 38 93 94 124 82 214 156
321 260 103 101 151 162 229 287 31 50 84 122 117 160 34 39 63 82 67 97 3 15
13 30 23 33 22 7 127 212 195 382 l50 122 50 11 c64 14 176 68 243 118 29 22
103 84 164 138 60 55 131 114 157 132 88 64 202 112 298 127 27 4 47 14 56 28
8 12 78 92 156 177 147 160 201 242 201 305 0 19 8 39 20 50 39 35 19 103 -71
236 -34 51 -69 114 -79 141 -15 43 -25 54 -71 80 -76 43 -131 90 -173 147
l-36 49 0 108 c0 133 -15 198 -88 369 -72 172 -82 206 -83 295 -2 133 -1 133
130 239 65 52 134 104 154 115 21 12 35 26 33 32 -6 15 47 122 68 137 10 8 19
43 27 107 8 70 23 125 55 208 49 127 55 179 25 229 l-20 31 64 75 c67 79 94
101 163 136 31 16 42 27 42 45 0 13 6 29 14 35 9 7 17 43 21 94 10 107 29 179
65 242 30 53 80 235 80 292 0 21 8 40 24 55 35 33 46 85 53 244 5 128 8 141
26 150 22 10 31 23 47 67 13 38 70 62 195 82 62 11 129 30 175 51 147 65 262
79 372 44 80 -25 115 -25 173 0 26 11 56 20 67 20 12 0 61 -18 110 -41 l90
-41 101 4 c89 4 113 9 192 42 51 21 116 39 150 43 33 3 68 12 77 20 9 9 31 13
50 11 28 -2 33 0 36 20 3 20 9 22 40 20 27 -2 36 1 34 11 -4 22 17 40 57 47
67 12 71 17 65 87 -9 101 -12 109 -84 177 -60 58 -69 71 -79 120 -7 30 -24 87
-39 125 -27 70 -27 70 -98 105 -74 37 -151 66 -444 170 -478 169 -634 297
-745 615 -16 44 -33 85 -38 92 -5 7 -56 44 -113 83 -57 39 -131 96 -165 127
-54 51 -65 57 -98 54 -21 -1 -62 7 -92 18 -30 12 -64 21 -75 21 -15 0 -24 8
-28 26 -5 18 -21 32 -57 48 -67 32 -89 53 -89 88 0 26 -3 29 -22 23 -54 -16
-138 -59 -158 -80 -26 -27 -50 -93 -42 -113 3 -8 28 -25 56 -37 l51 -23 33
-107 c28 -91 40 -114 78 -155 53 -57 76 -116 55 -148 -6 -10 -16 -5 -41 18
-65 60 -173 102 -262 102 -78 -1 -90 -8 -86 -50 3 -34 7 -38 52 -55 27 -9 61
-31 76 -47 30 -32 68 -50 106 -50 17 0 31 -11 48 -37 33 -53 105 -118 211
-190 50 -34 103 -75 118 -91 l27 -28 -50 -24 -51 -24 -42 42 c-43 42 -43 42
-119 42 l-76 0 -33 42 -33 41 -181 -6 c-197 -6 -235 0 -266 43 -18 24 -18 31
2 245 13 145 27 238 40 274 24 70 24 87 -1 108 -15 13 -20 30 -20 70 0 46 -3
53 -20 53 -23 0 -31 25 -27 95 2 48 1 50 -29 59 -18 6 -41 24 -54 45 -47 70
-112 141 -136 147 -13 3 -24 10 -24 15 0 21 -56 42 -143 54 -51 7 -109 20
-129 28 -34 14 -39 14 -78 -5 l-42 -21 -44 21 c-55 27 -66 27 -88 3z"/>
<path d="M1629 3233 l-24 -28 28 24 c25 23 32 31 24 31 -2 0 -14 -12 -28 -27z"/>
<path d="M5570 2139 c-458 -51 -801 -433 -801 -895 0 -55 5 -130 11 -165 59
-325 300 -597 620 -700 79 -25 117 -31 225 -36 212 -9 377 36 545 148 402 269
519 798 269 1222 -51 87 -209 247 -291 295 -180 106 -386 153 -578 131z"/>
</g>
</svg>
