<?xml version="1.0" standalone="no"?>
<!DOCTYPE svg PUBLIC "-//W3C//DTD SVG 20010904//EN"
 "http://www.w3.org/TR/2001/REC-SVG-20010904/DTD/svg10.dtd">
<svg version="1.0" xmlns="http://www.w3.org/2000/svg"
 width="1280.000000pt" height="905.000000pt" viewBox="0 0 1280.000000 905.000000"
 preserveAspectRatio="xMidYMid meet">
<metadata>
Created by potrace 1.15, written by Peter Selinger 2001-2017
</metadata>
<g transform="translate(0.000000,905.000000) scale(0.100000,-0.100000)"
fill="#d4d4d8" stroke="none">
<path d="M4835 9041 c-46 -11 -149 -69 -194 -107 -56 -49 -102 -115 -160 -231
-28 -56 -64 -117 -79 -135 -108 -123 -153 -241 -192 -507 -12 -83 -30 -161
-40 -182 -26 -51 -116 -127 -165 -140 -54 -14 -217 -101 -340 -181 -55 -36
-142 -89 -194 -118 -52 -29 -139 -89 -193 -133 -132 -106 -342 -315 -402 -400
-35 -49 -63 -76 -104 -100 -47 -27 -62 -43 -87 -92 -19 -37 -65 -95 -125 -156
-52 -54 -108 -115 -125 -135 -32 -39 -232 -211 -305 -261 -25 -17 -97 -64
-160 -106 -63 -41 -145 -100 -182 -131 -81 -68 -100 -104 -218 -426 -45 -124
-88 -236 -95 -250 -27 -52 -135 -515 -160 -681 -14 -96 -32 -201 -40 -234 -9
-33 -22 -114 -30 -180 -19 -150 -41 -198 -108 -240 -142 -89 -259 -171 -336
-237 -114 -99 -147 -122 -160 -113 -7 4 -23 24 -36 45 -18 28 -35 42 -62 49
-89 25 -153 4 -153 -49 0 -34 -23 -60 -54 -60 -34 0 -58 -23 -54 -50 3 -27 55
-66 152 -115 33 -16 62 -37 66 -45 35 -79 48 -97 80 -112 145 -71 198 -92 234
-90 43 1 284 66 327 88 45 23 211 204 378 414 75 94 78 100 159 315 45 121 93
258 108 305 14 47 39 111 55 142 16 32 29 62 29 68 0 6 70 158 156 338 86 180
176 379 201 442 57 149 84 210 95 210 4 0 8 -23 8 -52 0 -62 -36 -545 -50
-673 -6 -49 -21 -225 -35 -390 -14 -165 -33 -356 -42 -425 -12 -83 -17 -180
-16 -290 2 -185 28 -611 44 -710 17 -111 147 -388 225 -482 20 -23 74 -92 119
-153 46 -60 109 -135 141 -165 95 -89 108 -113 109 -195 0 -64 4 -79 47 -162
26 -50 50 -110 54 -134 4 -24 26 -87 50 -140 23 -52 47 -115 54 -140 7 -24 27
-69 45 -99 18 -30 37 -68 41 -84 l7 -29 -29 22 c-16 12 -57 26 -90 31 -34 6
-121 28 -195 49 -74 22 -156 45 -184 51 -27 6 -56 17 -65 24 -23 20 -68 34
-160 51 -47 8 -123 26 -170 39 -47 13 -101 27 -120 31 -19 4 -64 17 -100 30
-36 13 -137 42 -225 65 -88 24 -164 47 -170 52 -5 5 -13 80 -16 166 -5 129
-10 167 -29 215 -29 76 -107 155 -194 196 -35 17 -66 37 -69 44 -3 9 -7 9 -19
0 -11 -9 -29 -10 -71 -3 -67 11 -152 -1 -234 -32 -40 -15 -73 -38 -113 -78
-56 -57 -59 -58 -126 -65 -134 -13 -207 -33 -309 -85 -110 -55 -201 -128 -295
-234 -79 -90 -117 -169 -132 -272 -16 -113 -6 -137 81 -178 59 -27 76 -30 156
-30 73 0 103 5 158 27 37 15 83 27 102 27 56 0 217 -95 418 -246 36 -28 68
-44 86 -44 30 0 87 38 135 89 17 17 34 31 39 31 14 0 424 -154 550 -207 59
-25 107 -49 107 -54 0 -4 19 -13 43 -20 72 -19 201 -87 237 -126 53 -56 201
-148 277 -173 70 -22 143 -60 225 -116 25 -17 82 -44 125 -58 43 -15 96 -37
118 -48 22 -11 83 -43 135 -71 151 -80 203 -104 261 -122 30 -9 91 -30 136
-46 132 -48 220 -62 403 -63 155 -1 169 1 232 25 99 38 173 87 231 149 66 72
87 122 97 233 9 92 -1 331 -20 452 -4 33 -11 94 -15 135 -3 41 -18 168 -32
282 l-25 207 37 153 c20 84 48 182 61 218 14 35 27 91 31 122 l6 58 -60 58
c-53 51 -62 65 -73 115 -15 74 -10 143 10 139 80 -18 207 -24 655 -30 509 -7
521 -7 550 -28 17 -12 77 -45 134 -73 57 -29 157 -86 224 -128 184 -115 370
-204 562 -268 156 -52 442 -137 576 -171 75 -18 152 -41 172 -49 40 -16 262
-70 462 -111 72 -14 150 -34 175 -44 44 -17 193 -52 275 -65 22 -3 101 -25
175 -49 74 -24 165 -52 203 -61 85 -22 143 -62 152 -107 4 -18 23 -64 42 -103
94 -187 224 -335 350 -396 59 -29 79 -34 144 -34 76 0 78 1 149 49 136 93 310
289 310 350 1 30 25 56 115 121 147 106 394 332 528 482 171 193 357 543 357
674 0 44 -31 118 -61 145 -14 12 -41 19 -83 22 -81 5 -128 -15 -221 -94 -38
-33 -99 -82 -135 -110 -36 -27 -72 -56 -81 -65 -24 -24 -137 -85 -184 -99 -22
-7 -71 -26 -108 -42 -59 -25 -90 -31 -216 -41 -182 -13 -205 -8 -241 53 -21
37 -32 46 -58 48 -32 3 -58 -16 -110 -82 -7 -9 -26 -16 -43 -16 -46 0 -99 -54
-106 -110 -8 -66 -18 -80 -57 -80 -48 0 -243 76 -1369 531 -595 241 -778 320
-826 359 -29 24 -57 34 -114 44 -42 8 -87 22 -100 32 -13 11 -59 47 -102 82
-84 68 -187 124 -305 166 -41 15 -115 46 -165 71 -49 24 -142 62 -205 83 -399
137 -432 150 -745 305 -281 138 -323 161 -345 194 -15 22 -51 51 -85 71 -33
18 -77 47 -98 63 -54 43 -96 58 -224 80 -111 18 -151 31 -165 52 -16 26 -18
99 -3 162 19 84 19 104 -2 167 -24 74 -8 141 54 232 66 95 66 138 -1 291 -40
91 -49 120 -49 170 0 75 30 148 93 225 l45 55 0 120 c0 118 1 121 33 175 18
30 52 96 76 145 43 88 63 114 119 149 46 28 54 58 32 122 -21 63 -35 21 100
318 82 183 97 209 158 273 l40 42 -10 98 c-6 54 -9 101 -7 104 2 3 33 2 70 -3
85 -12 97 -8 167 46 81 63 158 71 311 31 28 -7 80 -16 116 -19 36 -4 101 -15
145 -25 44 -10 99 -22 122 -26 36 -6 46 -13 68 -51 27 -46 67 -66 88 -45 6 6
14 34 17 62 3 27 10 50 15 51 6 0 17 -26 26 -60 9 -34 22 -68 29 -77 21 -26
53 -14 73 28 20 42 32 46 63 16 30 -28 49 -17 109 63 43 57 46 66 40 103 -10
63 -75 186 -115 217 -88 69 -258 97 -468 78 -75 -6 -141 -13 -147 -13 -6 -1
-10 30 -9 78 1 96 12 117 85 166 36 25 63 55 95 109 25 41 57 87 71 102 24 25
30 27 88 21 78 -7 125 8 164 53 50 57 65 126 58 284 -3 74 -12 158 -19 186
-17 61 -180 310 -265 403 -81 90 -284 274 -368 334 -38 27 -99 63 -135 81 -62
29 -71 31 -205 33 -77 1 -154 -2 -170 -6z"/>
<path d="M11723 5790 c-340 -50 -630 -306 -738 -652 -26 -84 -27 -92 -23 -285
l4 -198 42 -105 c115 -288 340 -490 637 -572 114 -31 344 -31 460 1 168 45
320 136 440 262 161 170 240 355 252 589 26 540 -391 976 -926 969 -53 -1
-119 -5 -148 -9z"/>
</g>
</svg>
